<svg width="888" height="570" viewBox="0 0 888 570" fill="none" xmlns="http://www.w3.org/2000/svg">
<g clip-path="url(#clip0)">
<path d="M887.873 0.346649H276.411V391.954H887.873V0.346649Z" fill="#E6E6E6"/>
<path d="M859.492 55H283V374.322H859.492V55Z" fill="white"/>
<path d="M859 10H283V36H859V10Z" fill="#A7A2A2"/>
<path d="M298.815 27.6293C301.474 27.6293 303.629 25.4737 303.629 22.8147C303.629 20.1556 301.474 18 298.815 18C296.156 18 294 20.1556 294 22.8147C294 25.4737 296.156 27.6293 298.815 27.6293Z" fill="#FB0505"/>
<path d="M317.815 27.6293C320.474 27.6293 322.629 25.4737 322.629 22.8147C322.629 20.1556 320.474 18 317.815 18C315.156 18 313 20.1556 313 22.8147C313 25.4737 315.156 27.6293 317.815 27.6293Z" fill="#FAFF09"/>
<path d="M336.815 27.6293C339.474 27.6293 341.629 25.4737 341.629 22.8147C341.629 20.1556 339.474 18 336.815 18C334.156 18 332 20.1556 332 22.8147C332 25.4737 334.156 27.6293 336.815 27.6293Z" fill="#05FC4A"/>
<path d="M707.267 79.3726H519.58C519.179 79.3198 518.811 79.1232 518.545 78.8193C518.278 78.5155 518.131 78.1251 518.131 77.721C518.131 77.3169 518.278 76.9266 518.545 76.6227C518.811 76.3189 519.179 76.1222 519.58 76.0694H707.267C707.667 76.1222 708.035 76.3189 708.302 76.6227C708.568 76.9266 708.715 77.3169 708.715 77.721C708.715 78.1251 708.568 78.5155 708.302 78.8193C708.035 79.1232 707.667 79.3198 707.267 79.3726V79.3726Z" fill="#CCCCCC"/>
<path d="M577.218 97.5401H457.886C457.486 97.4872 457.118 97.2906 456.851 96.9867C456.585 96.6829 456.438 96.2926 456.438 95.8884C456.438 95.4843 456.585 95.094 456.851 94.7902C457.118 94.4863 457.486 94.2897 457.886 94.2369H577.218C577.619 94.2897 577.987 94.4863 578.253 94.7902C578.52 95.094 578.666 95.4843 578.666 95.8884C578.666 96.2926 578.52 96.6829 578.253 96.9867C577.987 97.2906 577.619 97.4872 577.218 97.5401V97.5401Z" fill="#CCCCCC"/>
<path d="M707.267 97.8704H587.935C587.534 97.8176 587.166 97.6209 586.9 97.3171C586.634 97.0132 586.487 96.6229 586.487 96.2188C586.487 95.8147 586.634 95.4243 586.9 95.1205C587.166 94.8167 587.534 94.62 587.935 94.5672H707.267C707.668 94.62 708.035 94.8167 708.302 95.1205C708.568 95.4243 708.715 95.8147 708.715 96.2188C708.715 96.6229 708.568 97.0132 708.302 97.3171C708.035 97.6209 707.668 97.8176 707.267 97.8704H707.267Z" fill="#CCCCCC"/>
<path d="M577.508 115.708H458.176C457.775 115.655 457.408 115.458 457.141 115.154C456.875 114.85 456.728 114.46 456.728 114.056C456.728 113.652 456.875 113.261 457.141 112.958C457.408 112.654 457.775 112.457 458.176 112.404H577.508C577.908 112.457 578.276 112.654 578.543 112.958C578.809 113.261 578.956 113.652 578.956 114.056C578.956 114.46 578.809 114.85 578.543 115.154C578.276 115.458 577.908 115.655 577.508 115.708V115.708Z" fill="#CCCCCC"/>
<path d="M577.798 133.875H458.466C458.065 133.822 457.697 133.626 457.431 133.322C457.164 133.018 457.017 132.627 457.017 132.223C457.017 131.819 457.164 131.429 457.431 131.125C457.697 130.821 458.065 130.625 458.466 130.572H577.798C578.198 130.625 578.566 130.821 578.832 131.125C579.099 131.429 579.246 131.819 579.246 132.223C579.246 132.627 579.099 133.018 578.832 133.322C578.566 133.626 578.198 133.822 577.798 133.875V133.875Z" fill="#CCCCCC"/>
<path d="M631.96 115.708H597.783C597.382 115.655 597.014 115.458 596.748 115.154C596.481 114.85 596.335 114.46 596.335 114.056C596.335 113.652 596.481 113.261 596.748 112.958C597.014 112.654 597.382 112.457 597.783 112.404H631.96C632.361 112.457 632.729 112.654 632.995 112.958C633.262 113.261 633.408 113.652 633.408 114.056C633.408 114.46 633.262 114.85 632.995 115.154C632.729 115.458 632.361 115.655 631.96 115.708V115.708Z" fill="#CCCCCC"/>
<path d="M631.96 133.545H597.783C597.382 133.492 597.014 133.295 596.748 132.991C596.481 132.688 596.335 132.297 596.335 131.893C596.335 131.489 596.481 131.099 596.748 130.795C597.014 130.491 597.382 130.294 597.783 130.241H631.96C632.361 130.294 632.729 130.491 632.995 130.795C633.262 131.099 633.408 131.489 633.408 131.893C633.408 132.297 633.262 132.688 632.995 132.991C632.729 133.295 632.361 133.492 631.96 133.545V133.545Z" fill="#CCCCCC"/>
<path d="M689.309 133.545H655.132C654.731 133.492 654.363 133.295 654.097 132.991C653.83 132.688 653.683 132.297 653.683 131.893C653.683 131.489 653.83 131.099 654.097 130.795C654.363 130.491 654.731 130.294 655.132 130.241H689.309C689.71 130.294 690.078 130.491 690.344 130.795C690.61 131.099 690.757 131.489 690.757 131.893C690.757 132.297 690.61 132.688 690.344 132.991C690.078 133.295 689.71 133.492 689.309 133.545V133.545Z" fill="#CCCCCC"/>
<path d="M491.195 79.3726H457.017C456.617 79.3198 456.249 79.1232 455.982 78.8193C455.716 78.5155 455.569 78.1251 455.569 77.721C455.569 77.3169 455.716 76.9266 455.982 76.6227C456.249 76.3189 456.617 76.1222 457.017 76.0694H491.195C491.596 76.1222 491.963 76.3189 492.23 76.6227C492.496 76.9266 492.643 77.3169 492.643 77.721C492.643 78.1251 492.496 78.5155 492.23 78.8193C491.963 79.1232 491.596 79.3198 491.195 79.3726Z" fill="#CCCCCC"/>
<path d="M576.784 287.678H457.452C457.051 287.626 456.683 287.429 456.417 287.125C456.151 286.821 456.004 286.431 456.004 286.027C456.004 285.623 456.151 285.232 456.417 284.928C456.683 284.625 457.051 284.428 457.452 284.375H576.784C577.184 284.428 577.552 284.625 577.819 284.928C578.085 285.232 578.232 285.623 578.232 286.027C578.232 286.431 578.085 286.821 577.819 287.125C577.552 287.429 577.184 287.626 576.784 287.678H576.784Z" fill="#CCCCCC"/>
<path d="M576.204 324.013H456.873C456.472 323.961 456.104 323.764 455.838 323.46C455.571 323.156 455.424 322.766 455.424 322.362C455.424 321.958 455.571 321.567 455.838 321.263C456.104 320.96 456.472 320.763 456.873 320.71H576.205C576.605 320.763 576.973 320.96 577.239 321.263C577.506 321.567 577.653 321.958 577.653 322.362C577.653 322.766 577.506 323.156 577.239 323.46C576.973 323.764 576.605 323.961 576.205 324.013H576.204Z" fill="#CCCCCC"/>
<path d="M576.494 342.181H457.162C456.762 342.128 456.394 341.931 456.127 341.627C455.861 341.324 455.714 340.933 455.714 340.529C455.714 340.125 455.861 339.735 456.127 339.431C456.394 339.127 456.762 338.93 457.162 338.878H576.494C576.895 338.93 577.263 339.127 577.529 339.431C577.796 339.735 577.942 340.125 577.942 340.529C577.942 340.933 577.796 341.324 577.529 341.627C577.263 341.931 576.895 342.128 576.494 342.181H576.494Z" fill="#CCCCCC"/>
<path d="M627.471 324.344H593.293C592.893 324.291 592.525 324.094 592.258 323.79C591.992 323.486 591.845 323.096 591.845 322.692C591.845 322.288 591.992 321.898 592.258 321.594C592.525 321.29 592.893 321.093 593.293 321.04H627.471C627.871 321.093 628.239 321.29 628.506 321.594C628.772 321.898 628.919 322.288 628.919 322.692C628.919 323.096 628.772 323.486 628.506 323.79C628.239 324.094 627.871 324.291 627.471 324.344V324.344Z" fill="#CCCCCC"/>
<path d="M627.471 342.181H593.293C592.893 342.128 592.525 341.931 592.258 341.627C591.992 341.324 591.845 340.933 591.845 340.529C591.845 340.125 591.992 339.735 592.258 339.431C592.525 339.127 592.893 338.93 593.293 338.878H627.471C627.871 338.93 628.239 339.127 628.506 339.431C628.772 339.735 628.919 340.125 628.919 340.529C628.919 340.933 628.772 341.324 628.506 341.627C628.239 341.931 627.871 342.128 627.471 342.181V342.181Z" fill="#CCCCCC"/>
<path d="M684.82 324.344H650.642C650.241 324.291 649.874 324.094 649.607 323.79C649.341 323.486 649.194 323.096 649.194 322.692C649.194 322.288 649.341 321.898 649.607 321.594C649.874 321.29 650.241 321.093 650.642 321.04H684.82C685.22 321.093 685.588 321.29 685.855 321.594C686.121 321.898 686.268 322.288 686.268 322.692C686.268 323.096 686.121 323.486 685.855 323.79C685.588 324.094 685.22 324.291 684.82 324.344V324.344Z" fill="#CCCCCC"/>
<path d="M707.412 305.846H519.725C519.324 305.793 518.956 305.596 518.69 305.293C518.423 304.989 518.276 304.598 518.276 304.194C518.276 303.79 518.423 303.4 518.69 303.096C518.956 302.792 519.324 302.595 519.725 302.543H707.412C707.812 302.595 708.18 302.792 708.447 303.096C708.713 303.4 708.86 303.79 708.86 304.194C708.86 304.598 708.713 304.989 708.447 305.293C708.18 305.596 707.812 305.793 707.412 305.846V305.846Z" fill="#CCCCCC"/>
<path d="M491.34 305.846H457.162C456.762 305.793 456.394 305.596 456.127 305.293C455.861 304.989 455.714 304.598 455.714 304.194C455.714 303.79 455.861 303.4 456.127 303.096C456.394 302.792 456.762 302.595 457.162 302.543H491.34C491.74 302.595 492.108 302.792 492.375 303.096C492.641 303.4 492.788 303.79 492.788 304.194C492.788 304.598 492.641 304.989 492.375 305.293C492.108 305.596 491.74 305.793 491.34 305.846V305.846Z" fill="#CCCCCC"/>
<path d="M490.343 163L444 208.764L490.343 254.527L500.77 244.1L465.723 209.053L501.059 173.717L490.343 163Z" fill="#E6E6E6"/>
<path d="M664.717 163L711.059 208.764L664.717 254.527L654.29 244.1L689.336 209.053L654 173.717L664.717 163Z" fill="#E6E6E6"/>
<path d="M490.343 163L444 208.764L490.343 254.527L500.77 244.1L465.723 209.053L501.059 173.717L490.343 163Z" fill="#EF0C0F"/>
<path d="M662.717 163L709.059 208.764L662.717 254.527L652.29 244.1L687.336 209.053L652 173.717L662.717 163Z" fill="#EF0C0F"/>
<path d="M470.603 546.035C485.023 565.346 514.955 567.379 514.955 567.379C514.955 567.379 521.508 538.102 507.089 518.791C492.669 499.48 462.737 497.448 462.737 497.448C462.737 497.448 456.183 526.724 470.603 546.035Z" fill="#E6E6E6"/>
<path d="M544.06 553.295C534.545 566.038 514.793 567.379 514.793 567.379C514.793 567.379 510.469 548.06 519.984 535.317C529.499 522.575 549.25 521.233 549.25 521.233C549.25 521.233 553.575 540.552 544.06 553.295Z" fill="#E6E6E6"/>
<path d="M149.825 460.994V511.12H135.503L125.956 458.607L149.825 460.994Z" fill="#FFB9B9"/>
<path d="M36.445 460.994V511.12H22.124L12.576 458.607L36.445 460.994Z" fill="#FFB9B9"/>
<path d="M111.998 91.4823C111.998 91.4823 88.9837 74.9409 86.1069 82.852C83.2301 90.7631 103.367 105.147 103.367 105.147L111.998 91.4823Z" fill="#FFB9B9"/>
<path d="M30.3699 112.698C30.3699 141.296 42.6827 142.185 62.7411 142.185C82.7996 142.185 103.008 141.296 103.008 112.698C103.008 84.1002 86.7473 60.9168 66.6888 60.9168C46.6304 60.9168 30.3699 84.1002 30.3699 112.698Z" fill="#2F2E41"/>
<path d="M79.6342 112.339C79.6342 112.339 76.7575 133.914 90.422 135.353C104.087 136.791 45.8324 141.106 45.8324 141.106C45.8324 141.106 60.9353 127.442 53.0243 116.654C45.1132 105.866 79.6342 112.339 79.6342 112.339Z" fill="#FFB9B9"/>
<path d="M152.272 497.823L157.307 540.255C157.307 540.255 182.478 571.181 166.656 569.023C150.834 566.865 140.765 569.482 140.765 566.605C140.765 563.728 140.393 553.45 138.236 553.45C136.078 553.45 134.293 569.68 134.293 569.68C134.293 569.68 127.82 569.19 127.101 568.471C126.381 567.752 125.662 526.591 125.662 526.591C125.662 526.591 123.505 514.365 127.82 508.611C132.135 502.858 131.416 497.823 131.416 497.823L152.272 497.823Z" fill="#2F2E41"/>
<path d="M37.699 497.357L42.7333 539.789C42.7333 539.789 67.9049 570.714 52.0828 568.556C36.2606 566.399 26.192 569.015 26.192 566.138C26.192 563.262 25.82 552.983 23.6624 552.983C21.5048 552.983 19.7193 569.214 19.7193 569.214C19.7193 569.214 13.2466 568.724 12.5274 568.005C11.8082 567.285 11.089 526.124 11.089 526.124C11.089 526.124 8.93148 513.898 13.2466 508.145C17.5617 502.391 16.8425 497.357 16.8425 497.357H37.699Z" fill="#2F2E41"/>
<path d="M114.874 245.388C114.874 245.388 137.888 310.835 139.327 325.218C140.765 339.602 137.888 388.507 137.888 388.507C137.888 388.507 158.745 473.005 154.43 473.725C150.115 474.444 126.084 477.853 125.365 474.258C124.646 470.662 122.082 465.094 122.801 462.937C123.52 460.779 120.643 452.868 120.643 448.553C120.643 444.238 110.559 421.589 111.278 417.994C111.998 414.398 99.0522 361.178 96.8947 356.863C94.7371 352.547 88.9836 322.342 88.9836 322.342C88.9836 322.342 56.6201 410.802 55.901 412.959C55.1818 415.117 52.305 418.713 53.7434 419.432C55.1818 420.151 51.5858 425.185 51.5858 425.185C51.5858 425.185 44.1335 455.026 44.1335 456.464C44.1335 457.903 45.5719 474.183 42.6952 474.903C39.8184 475.622 10.4337 475.576 8.99536 470.542C7.55698 465.507 24.2567 407.206 24.2567 407.206C24.2567 407.206 36.4829 370.527 32.887 361.178C29.291 351.828 36.4829 295.732 39.3596 291.417C42.2364 287.101 42.9556 261.211 42.9556 261.211L114.874 245.388Z" fill="#2F2E41"/>
<path d="M67.0484 124.205C79.7587 124.205 90.0624 113.902 90.0624 101.191C90.0624 88.481 79.7587 78.1773 67.0484 78.1773C54.3381 78.1773 44.0344 88.481 44.0344 101.191C44.0344 113.902 54.3381 124.205 67.0484 124.205Z" fill="#FFB9B9"/>
<path d="M79.6342 130.318C79.6342 130.318 53.7435 131.038 52.3051 128.88C50.8667 126.722 14.9073 133.914 14.9073 148.298C14.9073 162.682 35.7638 218.779 35.7638 218.779C35.7638 218.779 43.6748 259.053 41.5173 263.368C39.3597 267.683 121.347 254.019 119.19 246.827C117.032 239.635 104.806 223.813 120.628 210.148C136.45 196.484 142.923 182.1 142.923 182.1L124.224 132.476C124.224 132.476 105.525 129.599 101.21 132.476C96.8947 135.353 79.6342 130.318 79.6342 130.318Z" fill="#EF0C0F"/>
<path d="M137.888 185.696L142.923 182.1C142.923 182.1 189.67 133.195 177.444 123.846C165.218 114.496 147.238 105.866 138.608 105.147C129.977 104.428 122.786 97.955 122.786 97.955C122.786 97.955 113.436 81.4136 106.244 92.2015C99.0523 102.989 91.1412 106.585 101.21 110.181C111.278 113.777 117.751 112.339 122.786 115.935C127.82 119.531 147.238 125.284 138.608 127.442C133.659 128.641 128.841 130.328 124.224 132.476L114.874 149.017L137.888 185.696Z" fill="#EF0C0F"/>
<path d="M56.6202 307.239C56.6202 307.239 75.3191 334.568 61.6545 333.129C47.99 331.691 41.5173 312.992 41.5173 312.992L56.6202 307.239Z" fill="#FFB9B9"/>
<path d="M19.9416 144.702L14.9073 148.298C14.9073 148.298 -1.63399 238.916 14.9073 262.649C31.4487 286.382 32.887 284.944 32.887 284.944C32.887 284.944 35.7638 282.786 37.2021 297.17C38.6405 311.554 36.483 317.307 40.7981 317.307C45.1132 317.307 64.5313 312.992 63.0929 309.396C61.6546 305.8 52.3051 284.944 51.5859 279.909C50.8667 274.875 47.2708 263.368 45.8324 256.895C44.3941 250.423 52.3051 246.827 48.7092 233.162C45.1132 219.498 40.0789 195.045 40.0789 190.011C40.0789 184.977 19.9416 144.702 19.9416 144.702Z" fill="#EF0C0F"/>
<path d="M44.7536 80.6945C44.7536 88.4398 55.3793 94.7186 68.4868 94.7186C81.5943 94.7186 93.6584 98.868 93.6584 91.1227C93.6584 83.3773 81.5943 66.6703 68.4868 66.6703C55.3793 66.6703 44.7536 72.9491 44.7536 80.6945Z" fill="#2F2E41"/>
<path d="M102.792 117.552C102.792 117.552 103.761 143.623 77.8533 142.185C51.9456 140.747 81.3544 119.9 81.3544 119.9L102.792 117.552Z" fill="#2F2E41"/>
<path d="M702.906 567.379H0V569.62H702.906V567.379Z" fill="#3F3D56"/>
<path d="M554.426 196.621L554.754 198.871L555.234 196.844L558.609 184.938H560.508L563.801 196.844L564.27 198.906L564.633 196.609L567.281 184.938H569.543L565.406 202H563.355L559.84 189.566L559.57 188.266L559.301 189.566L555.656 202H553.605L549.48 184.938H551.73L554.426 196.621ZM581.695 194.113H574.301V200.16H582.891V202H572.051V184.938H582.773V186.789H574.301V192.273H581.695V194.113ZM585.691 202V184.938H591.27C593.121 184.938 594.512 185.32 595.441 186.086C596.379 186.852 596.848 187.984 596.848 189.484C596.848 190.281 596.621 190.988 596.168 191.605C595.715 192.215 595.098 192.688 594.316 193.023C595.238 193.281 595.965 193.773 596.496 194.5C597.035 195.219 597.305 196.078 597.305 197.078C597.305 198.609 596.809 199.812 595.816 200.688C594.824 201.562 593.422 202 591.609 202H585.691ZM587.941 194.02V200.16H591.656C592.703 200.16 593.527 199.891 594.129 199.352C594.738 198.805 595.043 198.055 595.043 197.102C595.043 195.047 593.926 194.02 591.691 194.02H587.941ZM587.941 192.215H591.34C592.324 192.215 593.109 191.969 593.695 191.477C594.289 190.984 594.586 190.316 594.586 189.473C594.586 188.535 594.312 187.855 593.766 187.434C593.219 187.004 592.387 186.789 591.27 186.789H587.941V192.215ZM543.867 222.395C541.938 221.84 540.531 221.16 539.648 220.355C538.773 219.543 538.336 218.543 538.336 217.355C538.336 216.012 538.871 214.902 539.941 214.027C541.02 213.145 542.418 212.703 544.137 212.703C545.309 212.703 546.352 212.93 547.266 213.383C548.188 213.836 548.898 214.461 549.398 215.258C549.906 216.055 550.16 216.926 550.16 217.871H547.898C547.898 216.84 547.57 216.031 546.914 215.445C546.258 214.852 545.332 214.555 544.137 214.555C543.027 214.555 542.16 214.801 541.535 215.293C540.918 215.777 540.609 216.453 540.609 217.32C540.609 218.016 540.902 218.605 541.488 219.09C542.082 219.566 543.086 220.004 544.5 220.402C545.922 220.801 547.031 221.242 547.828 221.727C548.633 222.203 549.227 222.762 549.609 223.402C550 224.043 550.195 224.797 550.195 225.664C550.195 227.047 549.656 228.156 548.578 228.992C547.5 229.82 546.059 230.234 544.254 230.234C543.082 230.234 541.988 230.012 540.973 229.566C539.957 229.113 539.172 228.496 538.617 227.715C538.07 226.934 537.797 226.047 537.797 225.055H540.059C540.059 226.086 540.438 226.902 541.195 227.504C541.961 228.098 542.98 228.395 544.254 228.395C545.441 228.395 546.352 228.152 546.984 227.668C547.617 227.184 547.934 226.523 547.934 225.688C547.934 224.852 547.641 224.207 547.055 223.754C546.469 223.293 545.406 222.84 543.867 222.395ZM557.836 228.465C558.609 228.465 559.285 228.23 559.863 227.762C560.441 227.293 560.762 226.707 560.824 226.004H562.875C562.836 226.73 562.586 227.422 562.125 228.078C561.664 228.734 561.047 229.258 560.273 229.648C559.508 230.039 558.695 230.234 557.836 230.234C556.109 230.234 554.734 229.66 553.711 228.512C552.695 227.355 552.188 225.777 552.188 223.777V223.414C552.188 222.18 552.414 221.082 552.867 220.121C553.32 219.16 553.969 218.414 554.812 217.883C555.664 217.352 556.668 217.086 557.824 217.086C559.246 217.086 560.426 217.512 561.363 218.363C562.309 219.215 562.812 220.32 562.875 221.68H560.824C560.762 220.859 560.449 220.188 559.887 219.664C559.332 219.133 558.645 218.867 557.824 218.867C556.723 218.867 555.867 219.266 555.258 220.062C554.656 220.852 554.355 221.996 554.355 223.496V223.906C554.355 225.367 554.656 226.492 555.258 227.281C555.859 228.07 556.719 228.465 557.836 228.465ZM571.441 219.266C571.113 219.211 570.758 219.184 570.375 219.184C568.953 219.184 567.988 219.789 567.48 221V230H565.312V217.32H567.422L567.457 218.785C568.168 217.652 569.176 217.086 570.48 217.086C570.902 217.086 571.223 217.141 571.441 217.25V219.266ZM580.805 230C580.68 229.75 580.578 229.305 580.5 228.664C579.492 229.711 578.289 230.234 576.891 230.234C575.641 230.234 574.613 229.883 573.809 229.18C573.012 228.469 572.613 227.57 572.613 226.484C572.613 225.164 573.113 224.141 574.113 223.414C575.121 222.68 576.535 222.312 578.355 222.312H580.465V221.316C580.465 220.559 580.238 219.957 579.785 219.512C579.332 219.059 578.664 218.832 577.781 218.832C577.008 218.832 576.359 219.027 575.836 219.418C575.312 219.809 575.051 220.281 575.051 220.836H572.871C572.871 220.203 573.094 219.594 573.539 219.008C573.992 218.414 574.602 217.945 575.367 217.602C576.141 217.258 576.988 217.086 577.91 217.086C579.371 217.086 580.516 217.453 581.344 218.188C582.172 218.914 582.602 219.918 582.633 221.199V227.035C582.633 228.199 582.781 229.125 583.078 229.812V230H580.805ZM577.207 228.348C577.887 228.348 578.531 228.172 579.141 227.82C579.75 227.469 580.191 227.012 580.465 226.449V223.848H578.766C576.109 223.848 574.781 224.625 574.781 226.18C574.781 226.859 575.008 227.391 575.461 227.773C575.914 228.156 576.496 228.348 577.207 228.348ZM596.742 223.801C596.742 225.73 596.301 227.285 595.418 228.465C594.535 229.645 593.34 230.234 591.832 230.234C590.293 230.234 589.082 229.746 588.199 228.77V234.875H586.031V217.32H588.012L588.117 218.727C589 217.633 590.227 217.086 591.797 217.086C593.32 217.086 594.523 217.66 595.406 218.809C596.297 219.957 596.742 221.555 596.742 223.602V223.801ZM594.574 223.555C594.574 222.125 594.27 220.996 593.66 220.168C593.051 219.34 592.215 218.926 591.152 218.926C589.84 218.926 588.855 219.508 588.199 220.672V226.73C588.848 227.887 589.84 228.465 591.176 228.465C592.215 228.465 593.039 228.055 593.648 227.234C594.266 226.406 594.574 225.18 594.574 223.555ZM604.77 230.234C603.051 230.234 601.652 229.672 600.574 228.547C599.496 227.414 598.957 225.902 598.957 224.012V223.613C598.957 222.355 599.195 221.234 599.672 220.25C600.156 219.258 600.828 218.484 601.688 217.93C602.555 217.367 603.492 217.086 604.5 217.086C606.148 217.086 607.43 217.629 608.344 218.715C609.258 219.801 609.715 221.355 609.715 223.379V224.281H601.125C601.156 225.531 601.52 226.543 602.215 227.316C602.918 228.082 603.809 228.465 604.887 228.465C605.652 228.465 606.301 228.309 606.832 227.996C607.363 227.684 607.828 227.27 608.227 226.754L609.551 227.785C608.488 229.418 606.895 230.234 604.77 230.234ZM604.5 218.867C603.625 218.867 602.891 219.188 602.297 219.828C601.703 220.461 601.336 221.352 601.195 222.5H607.547V222.336C607.484 221.234 607.188 220.383 606.656 219.781C606.125 219.172 605.406 218.867 604.5 218.867ZM618.363 219.266C618.035 219.211 617.68 219.184 617.297 219.184C615.875 219.184 614.91 219.789 614.402 221V230H612.234V217.32H614.344L614.379 218.785C615.09 217.652 616.098 217.086 617.402 217.086C617.824 217.086 618.145 217.141 618.363 217.25V219.266Z" fill="black"/>
</g>
<defs>
<clipPath id="clip0">
<rect width="887.873" height="569.68" fill="white"/>
</clipPath>
</defs>
</svg>
