<svg width="366" height="384" viewBox="0 0 366 384" fill="none" xmlns="http://www.w3.org/2000/svg">
<g clip-path="url(#clip0)">
<path d="M2.49835 163.494C3.87051 157.139 10.3176 155.056 15.5886 155.289C18.9188 155.535 22.2222 156.107 25.4591 156.997C28.846 157.826 32.2 158.807 35.5371 159.848C41.6566 161.757 47.713 164.065 53.9333 165.557C59.1117 166.799 64.7391 167.528 69.9033 165.813C74.8674 164.164 79.0789 160.117 80.4295 154.522C81.7023 149.249 79.9548 143.483 75.2828 141.074C71.0223 138.876 65.6405 139.994 63.5288 144.963C61.1478 150.566 63.5268 156.677 67.2968 160.732C69.4397 162.932 71.7867 164.882 74.2999 166.549C76.8507 168.45 79.6898 169.841 82.6851 170.657C87.603 171.805 93.4613 170.113 95.9974 164.974C96.5612 163.811 96.9003 162.533 96.9936 161.221C97.1438 159.434 94.5925 159.445 94.4433 161.221C94.0134 166.337 88.5344 168.734 84.4372 168.172C81.6715 167.671 79.0304 166.55 76.6797 164.88C74.411 163.433 72.2612 161.774 70.2544 159.921C66.7793 156.633 63.5218 151.22 65.8557 146.088C67.7562 141.909 72.7103 141.95 75.7236 144.645C79.3727 147.909 78.722 153.834 76.3152 157.71C73.6502 162.002 68.82 163.801 64.2658 163.995C59.3173 164.206 54.4101 162.964 49.6807 161.495C43.8042 159.67 37.9863 157.627 32.0816 155.909C28.7294 154.934 25.3514 154.053 21.9388 153.369C18.7119 152.591 15.3975 152.34 12.1034 152.624C6.78179 153.296 1.34954 156.684 0.0391611 162.752C-0.337743 164.498 2.12072 165.243 2.49838 163.494L2.49835 163.494Z" fill="#3F3D56"/>
<path d="M263.018 325.989C263.166 344.743 264.405 363.466 266.725 382.043C266.807 382.695 266.895 383.348 266.977 384L425.301 383.019C425.765 382.371 426.223 381.715 426.666 381.052C428.144 378.856 429.53 376.597 430.802 374.261C436.914 363.006 439.713 349.829 436.908 340.738L436.858 340.597C436.253 338.606 435.299 336.767 434.051 335.186C427.657 327.203 414.73 328.534 402.998 334.978C413.521 322.201 421.899 306.079 422.536 291.688C423.16 277.651 416.544 267.624 409.367 259.102C409.132 258.821 408.896 258.547 408.661 258.273C408.546 258.132 408.425 257.999 408.311 257.858C402.712 251.364 396.184 244.962 386.736 245.737C376.373 246.587 364.884 256.216 356.828 267.435C348.773 278.647 343.42 291.384 337.994 303.814C332.561 316.237 326.683 328.977 317.964 339.595C329.773 323.027 339.293 304.176 342.81 285.842C346.327 267.508 343.232 249.9 332.708 241.265C329.513 238.725 325.816 237.07 321.926 236.439C321.472 236.356 321.011 236.288 320.543 236.228C310.8 234.998 299.168 238.736 289.272 247.67C278.373 257.507 270.816 272.09 267.057 285.934C263.297 299.778 262.897 313.106 263.018 325.989Z" fill="white"/>
<path d="M292.347 383L294.718 382.982C295.471 382.326 296.227 381.679 296.987 381.039C297.458 380.626 297.933 380.228 298.41 379.822C306.275 373.136 314.189 366.723 322.152 360.583C330.108 354.438 338.104 348.576 346.14 342.997C346.353 342.867 346.527 342.639 346.631 342.35C346.735 342.061 346.764 341.73 346.711 341.415C346.702 341.374 346.689 341.335 346.672 341.3C346.559 341.007 346.309 340.885 345.943 341.135C344.958 341.823 343.966 342.511 342.981 343.214C334.923 348.889 326.899 354.847 318.911 361.088C310.927 367.326 302.99 373.84 295.097 380.629C294.931 380.769 294.765 380.917 294.599 381.058C293.847 381.705 293.099 382.353 292.347 383Z" fill="white"/>
<path d="M329 384L330.807 383.988C331.215 383.33 331.616 382.671 332.023 382.012C341.601 366.501 351.176 350.991 360.75 335.48C376.427 310.087 392.1 284.693 407.768 259.3C407.861 259.163 407.93 259.007 407.972 258.84C408.106 258.278 407.748 257.948 407.29 258.007C407.096 258.039 406.911 258.118 406.747 258.239C406.582 258.36 406.441 258.52 406.335 258.709C397.545 272.949 388.757 287.184 379.972 301.414C364.376 326.681 348.783 351.944 333.191 377.205C332.199 378.809 331.208 380.42 330.216 382.023C329.808 382.682 329.401 383.341 329 384Z" fill="white"/>
<path d="M286.061 371.604C286.159 375.127 286.373 378.594 286.652 382.029C286.706 382.686 286.761 383.343 286.815 384L288.826 383.988C288.765 383.331 288.703 382.674 288.649 382.017C288.224 377.055 287.923 372.036 287.882 366.882C287.828 352.59 289.105 338.33 291.694 324.32C294.445 309.235 298.395 294.44 303.5 280.103C308.857 264.981 315.317 250.351 322.816 236.354C322.958 236.126 323.021 235.851 322.994 235.577C322.911 234.952 322.148 234.767 321.577 235.364C321.464 235.481 321.367 235.615 321.289 235.762C320.361 237.501 319.45 239.246 318.556 240.996C311.333 255.071 305.151 269.752 300.068 284.898C295.226 299.283 291.543 314.1 289.061 329.182C286.736 343.174 285.731 357.389 286.061 371.604V371.604Z" fill="white"/>
<path d="M97.7378 164.431C97.427 164.127 97.1997 163.722 97.0846 163.266C96.9696 162.81 96.9719 162.325 97.0913 161.87C97.2106 161.416 97.4418 161.014 97.7555 160.714C98.0692 160.414 98.4515 160.229 98.8542 160.184C103.324 159.677 107.836 160.22 112.126 161.783L155.822 177.641C156.388 177.847 156.914 178.181 157.369 178.625C157.825 179.069 158.202 179.614 158.478 180.229C158.755 180.844 158.925 181.517 158.98 182.21C159.036 182.903 158.974 183.601 158.799 184.266C158.625 184.931 158.34 185.548 157.962 186.084C157.585 186.619 157.121 187.062 156.597 187.387C156.074 187.712 155.501 187.912 154.912 187.977C154.322 188.042 153.728 187.969 153.162 187.764L109.465 171.905C105.173 170.353 101.186 167.812 97.7378 164.431V164.431Z" fill="#3F3D56"/>
<path d="M282.536 230.161C281.24 229.574 280.079 228.687 279.134 227.563C278.19 226.439 277.485 225.104 277.069 223.654C276.654 222.204 276.538 220.673 276.73 219.169C276.922 217.665 277.416 216.225 278.179 214.95L270 168.755L290.847 167L292.105 212.185C294.003 213.711 295.317 215.936 295.798 218.439C296.279 220.941 295.893 223.547 294.714 225.763C293.534 227.979 291.643 229.65 289.399 230.461C287.154 231.272 284.713 231.165 282.536 230.161Z" fill="#FFB8B8"/>
<path d="M270.046 206.581L249.34 100.357C248.49 95.9942 249.248 91.4379 251.447 87.6905C253.647 83.9431 257.107 81.3116 261.068 80.3749C265.028 79.4382 269.165 80.2731 272.567 82.6958C275.968 85.1185 278.357 88.9306 279.208 93.2936L299.913 199.517C300.131 200.639 299.935 201.81 299.37 202.773C298.805 203.736 297.916 204.413 296.898 204.656L274.711 209.903C274.206 210.023 273.686 210.032 273.178 209.929C272.671 209.827 272.187 209.616 271.753 209.307C271.32 208.999 270.946 208.599 270.653 208.131C270.36 207.664 270.154 207.137 270.046 206.581V206.581Z" fill="#F90003"/>
<path d="M236.998 372H226.835L222 327L237 327.001L236.998 372Z" fill="#FFB8B8"/>
<path d="M218.75 369H239V383H206C206 381.161 206.33 379.341 206.971 377.642C207.611 375.944 208.55 374.401 209.734 373.101C210.918 371.801 212.324 370.769 213.871 370.066C215.418 369.362 217.076 369 218.75 369V369Z" fill="#2F2E41"/>
<path d="M271.997 371H261.158L256 326L272 326.001L271.997 371Z" fill="#FFB8B8"/>
<path d="M253.136 368H274V382H240C240 380.161 240.34 378.341 241 376.642C241.66 374.944 242.628 373.401 243.848 372.101C245.067 370.801 246.516 369.769 248.109 369.066C249.703 368.362 251.411 368 253.136 368V368Z" fill="#2F2E41"/>
<path d="M223.621 364.014C223.227 363.654 222.902 363.209 222.664 362.707C222.426 362.204 222.28 361.654 222.235 361.088L210.016 211.252C209.968 210.67 210.028 210.084 210.19 209.529C210.353 208.974 210.615 208.461 210.961 208.023C211.307 207.584 211.73 207.229 212.203 206.978C212.676 206.727 213.19 206.587 213.714 206.565L274.997 204.003C275.528 203.981 276.056 204.081 276.55 204.297C277.044 204.513 277.493 204.841 277.869 205.259C278.244 205.677 278.538 206.177 278.732 206.728C278.926 207.278 279.017 207.867 278.997 208.459L274.099 357.718C274.063 358.763 273.687 359.758 273.042 360.517C272.397 361.276 271.526 361.747 270.592 361.844L258.235 363.096C257.723 363.148 257.206 363.085 256.716 362.911C256.226 362.737 255.772 362.456 255.381 362.083C254.989 361.711 254.669 361.255 254.438 360.742C254.207 360.23 254.071 359.671 254.037 359.099L248.366 264.276C248.362 264.094 248.325 263.914 248.258 263.748C248.191 263.582 248.096 263.432 247.976 263.308C247.857 263.183 247.716 263.086 247.563 263.023C247.41 262.96 247.247 262.931 247.083 262.939H247.078C246.914 262.932 246.751 262.961 246.597 263.025C246.443 263.09 246.303 263.187 246.184 263.313C246.065 263.439 245.969 263.59 245.903 263.757C245.837 263.924 245.801 264.105 245.799 264.287L240.724 359.749C240.673 360.771 240.295 361.739 239.659 362.478C239.023 363.216 238.17 363.676 237.256 363.774L226.462 364.978C225.954 365.036 225.442 364.98 224.954 364.815C224.467 364.65 224.013 364.377 223.621 364.014H223.621Z" fill="#2F2E41"/>
<path d="M247.5 58C259.374 58 269 47.4787 269 34.5C269 21.5213 259.374 11 247.5 11C235.626 11 226 21.5213 226 34.5C226 47.4787 235.626 58 247.5 58Z" fill="#FFB8B8"/>
<path d="M207.889 212.535C207.519 212.06 207.247 211.498 207.093 210.89C206.939 210.281 206.907 209.642 206.999 209.018C210.834 182.666 208.673 143.933 206.183 116.079C205.534 108.69 206.618 101.239 209.327 94.4743C212.036 87.7098 216.274 81.8715 221.614 77.547L232.465 67.0356C233.186 66.345 234.106 65.977 235.051 66.0011L262.008 66.8713C262.98 66.9014 263.905 67.3523 264.591 68.1309L268.756 78.5564L268.799 78.5918C273.763 82.7156 277.745 88.1653 280.39 94.4537C283.035 100.742 284.259 107.673 283.954 114.627L279.987 207.307C279.936 208.385 279.53 209.402 278.85 210.159C278.17 210.917 277.263 211.359 276.309 211.4L210.878 213.998C210.836 213.999 210.794 214 210.752 214C210.21 214.001 209.674 213.87 209.18 213.618C208.686 213.365 208.246 212.996 207.889 212.535V212.535Z" fill="#F90003"/>
<path d="M128.003 173.692C127.97 172.166 128.231 170.651 128.766 169.252C129.302 167.854 130.1 166.606 131.104 165.598C132.108 164.589 133.293 163.844 134.576 163.415C135.86 162.987 137.21 162.884 138.531 163.115L172.473 136L182 155.932L146.175 175.775C145.688 178.284 144.411 180.501 142.587 182.008C140.763 183.514 138.519 184.204 136.279 183.947C134.039 183.691 131.959 182.505 130.434 180.615C128.908 178.725 128.043 176.262 128.003 173.692L128.003 173.692Z" fill="#FFB8B8"/>
<path d="M157.214 177.95C156.72 177.865 156.246 177.671 155.819 177.378C155.392 177.085 155.021 176.699 154.727 176.242L141.735 156.199C141.14 155.278 140.891 154.128 141.044 153C141.197 151.873 141.738 150.86 142.55 150.183L219.477 86.2441C222.637 83.6178 226.588 82.5206 230.462 83.1936C232.381 83.5268 234.222 84.2847 235.882 85.4238C237.542 86.563 238.987 88.0612 240.135 89.8328C241.284 91.6045 242.113 93.6149 242.575 95.7494C243.037 97.8838 243.123 100.1 242.829 102.273C242.535 104.445 241.866 106.53 240.86 108.41C239.854 110.289 238.531 111.926 236.966 113.226L160.039 177.165C159.39 177.707 158.605 178 157.798 178C157.603 178 157.407 177.983 157.214 177.95V177.95Z" fill="#F90003"/>
<path d="M248.247 55.6838C251.068 51.8793 250.759 46.0841 248.495 41.8533C246.23 37.6224 242.386 34.7085 238.431 32.4325C234.475 30.1566 230.274 28.3668 226.551 25.6568C222.829 22.9469 222.991 11.4743 222 6.68743L224.364 7.55339C223.455 6.27511 223.164 2.49794 222.255 1.21966C224.927 1.50991 226.981 4.29905 229.652 4.5893L228.11 0.039058C237.27 -0.582001 242.965 6.41809 252.125 5.79703C256.663 5.48933 261.592 5.29462 265.322 8.15303C268.565 10.637 270.206 14.9362 271.283 19.1171C273.595 28.0941 273.954 38.1498 269.961 46.3817C265.967 54.6135 256.762 60.1605 248.721 57.188L248.247 55.6838Z" fill="#2F2E41"/>
<path d="M106.061 384H365.32C365.5 384 365.673 383.895 365.801 383.707C365.928 383.52 366 383.265 366 383C366 382.735 365.928 382.48 365.801 382.293C365.673 382.105 365.5 382 365.32 382H106.061C105.881 382 105.708 382.105 105.58 382.293C105.453 382.48 105.381 382.735 105.381 383C105.381 383.265 105.453 383.52 105.58 383.707C105.708 383.895 105.881 384 106.061 384Z" fill="#3F3D56"/>
</g>
<defs>
<clipPath id="clip0">
<rect width="366" height="384" fill="white"/>
</clipPath>
</defs>
</svg>
